<svg width="23" height="23" viewBox="0 0 23 23" fill="none" xmlns="http://www.w3.org/2000/svg">
<g clip-path="url(#clip0)">
<path d="M20.1223 2.87734C16.2845 -0.960495 10.0554 -0.960495 6.21759 2.87734C2.95192 6.143 2.46612 11.136 4.75479 14.9144L0.690248 18.979C-0.227377 19.8966 -0.227377 21.3918 0.690248 22.3094C1.60787 23.227 3.10306 23.227 4.02069 22.3094L8.08522 18.2449C11.8637 20.5335 16.8566 20.0477 20.1223 16.7821C23.9547 12.9442 23.9547 6.71517 20.1223 2.87734ZM17.3748 14.04C15.6205 15.7943 13.035 16.2207 10.8759 15.3246C10.1742 15.0332 9.52104 14.6067 8.95427 14.04C8.3875 13.4732 7.96108 12.8201 7.66959 12.1184C6.77356 9.95924 7.19999 7.3737 8.95427 5.61942C11.2753 3.29836 15.0538 3.29836 17.3748 5.61942C19.6959 7.94047 19.6959 11.7189 17.3748 14.04Z" fill="white"/>
</g>
<defs>
<clipPath id="clip0">
<rect width="23" height="23" fill="white"/>
</clipPath>
</defs>
</svg>
