<svg width="43" height="43" viewBox="0 0 43 43" fill="none" xmlns="http://www.w3.org/2000/svg">
<path d="M21.5 0C9.632 0 0 9.632 0 21.5C0 33.368 9.632 43 21.5 43C33.368 43 43 33.368 43 21.5C43 9.632 33.368 0 21.5 0ZM21.5 6.45C25.069 6.45 27.95 9.331 27.95 12.9C27.95 16.469 25.069 19.35 21.5 19.35C17.931 19.35 15.05 16.469 15.05 12.9C15.05 9.331 17.931 6.45 21.5 6.45ZM21.5 36.98C16.125 36.98 11.3735 34.228 8.6 30.057C8.6645 25.7785 17.2 23.435 21.5 23.435C25.7785 23.435 34.3355 25.7785 34.4 30.057C31.6265 34.228 26.875 36.98 21.5 36.98Z" fill="white"/>
</svg>
